<svg xmlns="http://www.w3.org/2000/svg" viewBox="0 0 64 64" fill="none">
  <rect width="64" height="64" rx="16" fill="url(#g)"/>
  <defs>
    <linearGradient id="g" x1="0" y1="0" x2="64" y2="64" gradientUnits="userSpaceOnUse">
      <stop stop-color="#14b8a6"/>
      <stop offset="1" stop-color="#0f766e"/>
    </linearGradient>
  </defs>
  <!-- Trophy cup body -->
  <path d="M32 12 L25 12 L25 31 C25 37 29 41.5 32 43 C35 41.5 39 37 39 31 L39 12 Z" fill="white" opacity="0.95"/>
  <!-- Left handle -->
  <path d="M25 17 L18 17 C18 17 17 25 23 27.5 L25 27.5" stroke="white" stroke-width="3" stroke-linecap="round" fill="none" opacity="0.85"/>
  <!-- Right handle -->
  <path d="M39 17 L46 17 C46 17 47 25 41 27.5 L39 27.5" stroke="white" stroke-width="3" stroke-linecap="round" fill="none" opacity="0.85"/>
  <!-- Stem -->
  <rect x="29.5" y="43" width="5" height="8" rx="1.5" fill="white" opacity="0.9"/>
  <!-- Base -->
  <rect x="23" y="51" width="18" height="3.5" rx="1.75" fill="white" opacity="0.9"/>
  <!-- Sparkles -->
  <circle cx="19" cy="13" r="2" fill="white" opacity="0.45"/>
  <circle cx="45" cy="13" r="2" fill="white" opacity="0.45"/>
</svg>
